<svg width="13" height="12" viewBox="0 0 13 12" fill="none" xmlns="http://www.w3.org/2000/svg">
<path d="M10.5813 9.26146L10.5418 9.12981L10.4628 8.91915L10.4101 8.7875L10.2653 8.52418L10.0678 8.27403L9.80452 8.03705L9.50171 7.76057L9.25156 7.52359L9.01458 7.26027L8.81709 6.99696L8.63277 6.72048L8.43528 6.35184L8.31679 6.10169L8.17197 5.82521L7.98765 5.5224L7.777 5.24592L7.63217 5.10109L7.48735 4.96943L7.28987 4.82461L7.05288 4.71929L6.75007 4.61396L6.44726 4.57446H6.13128L5.82847 4.61396L5.394 4.77195L4.9727 5.0616L4.69622 5.33808L4.52506 5.60139L4.35391 5.9042L4.13009 6.365L3.91944 6.77314L3.68246 7.08912L3.39281 7.45776L2.53704 8.2477L2.45804 8.31353L2.26056 8.59001L2.10257 8.90599L2.01041 9.30096L1.95775 9.65643L1.94458 10.0514L1.98408 10.3147L2.10257 10.6834L2.27372 11.0257L2.45804 11.2627L2.69503 11.4996L3.011 11.7103L3.37964 11.8814L3.65612 11.9473L4.07743 11.9604L4.48557 11.8683L4.73571 11.7498L4.84104 11.6708L5.07802 11.5391L5.30184 11.4075L5.49933 11.289L5.70998 11.1968L5.88113 11.1178L6.07862 11.0652L6.28927 11.052L6.53942 11.0915L6.72374 11.131L7.02655 11.2758L7.39519 11.4601L7.698 11.6576L7.97448 11.8156L8.25096 11.9341L8.51428 11.9868L8.7381 11.9999L8.92242 11.9868L9.21206 11.9078L9.5807 11.7366L9.84402 11.5523L10.1205 11.2758L10.318 11.0125L10.4891 10.657L10.5945 10.3147L10.634 10.0251V9.72226L10.6208 9.55111L10.5813 9.26146Z" fill="#B5B0AD"/>
<path d="M9.52949 2.32088C9.64729 1.20727 9.10968 0.23754 8.32871 0.154927C7.54773 0.0723141 6.81913 0.908103 6.70133 2.02171C6.58353 3.13533 7.12114 4.10506 7.90212 4.18767C8.68309 4.27028 9.41169 3.43449 9.52949 2.32088Z" fill="#B5B0AD"/>
<path d="M4.67245 4.18223C5.45343 4.09962 5.99104 3.12989 5.87324 2.01627C5.75544 0.902664 5.02684 0.0668758 4.24586 0.149489C3.46489 0.232101 2.92728 1.20183 3.04508 2.31544C3.16288 3.42905 3.89148 4.26484 4.67245 4.18223Z" fill="#B5B0AD"/>
<path d="M12.139 5.62151C12.3809 4.5356 11.9556 3.5169 11.189 3.34618C10.4225 3.17546 9.60507 3.91736 9.36321 5.00327C9.12136 6.08918 9.54668 7.10788 10.3132 7.2786C11.0797 7.44933 11.8972 6.70742 12.139 5.62151Z" fill="#B5B0AD"/>
<path d="M2.26376 7.27809C3.03028 7.10737 3.45561 6.08866 3.21375 5.00276C2.97189 3.91685 2.15444 3.17494 1.38792 3.34566C0.621391 3.51639 0.196064 4.53509 0.437921 5.621C0.679778 6.70691 1.49723 7.44881 2.26376 7.27809Z" fill="#B5B0AD"/>
</svg>
